<svg width="30" height="30" viewBox="0 0 30 30" xmlns="http://www.w3.org/2000/svg"><path d="M18 7.007a1.6 1.6 0 00-1.188.75l-2.78 4.406c-.47-.73-.833-1.297-1.094-1.656-.34-.469-.563-.648-.75-.719l-5.094-2.5c-.492-.238-1.016-.234-1.438.032C5.238 7.58 5 8.03 5 8.57v11.125c0 .675.45 1.359 1.063 1.656l4.656 2.281c.699.262 1.262.164 1.562-.031.442-.29.688-.79.688-1.375v-3.313l4.281 2.063 5.25 2.563c.438.19 1.211.246 1.75-.032.461-.238.688-.758.688-1.312 0 0 .004-9.399 0-11.156-.004-.371-.188-.84-.844-1.22-.719-.41-2.164-1.148-5.219-2.655A1.671 1.671 0 0018 7.007zm.313 2.125a913.214 913.214 0 014.156 2.063l-4.531 7.125-2.72-4.313 3.095-4.875zM7 9.445l3.938 1.937.03 10.156L7 19.601V9.445zm5.938 4.75c.066.101 2.28 3.562 2.28 3.562l-2.28-1.094v-2.468zm10 0v7.312l-3.563-1.719 3.563-5.593z" fill="#222"/></svg>