<svg width="30" height="30" viewBox="0 0 30 30" xmlns="http://www.w3.org/2000/svg"><path d="M22.087 7.907A9.903 9.903 0 0015.043 5c-5.49 0-9.957 4.447-9.957 9.909a9.802 9.802 0 001.328 4.954L5 25l5.28-1.38a10.007 10.007 0 004.759 1.21h.004c5.487 0 9.953-4.447 9.957-9.913a9.822 9.822 0 00-2.913-7.01zm-2.173 10.545c-.206.578-1.222 1.136-1.678 1.175-.46.043-.888.205-2.987-.616-2.53-.993-4.128-3.575-4.252-3.741-.125-.163-1.013-1.342-1.013-2.56 0-1.22.643-1.817.869-2.065a.92.92 0 01.666-.31c.163 0 .33 0 .475.007.179.004.374.016.56.427.223.488.705 1.713.768 1.837.062.124.105.272.02.434-.083.167-.125.268-.246.415-.125.144-.261.322-.374.43-.125.125-.253.26-.109.508.144.248.643 1.059 1.382 1.714.95.845 1.753 1.105 2.002 1.229.25.124.393.104.537-.062.148-.163.623-.721.79-.97.164-.247.332-.205.558-.123.23.08 1.452.682 1.701.806.25.124.413.186.475.287.063.104.063.6-.144 1.178z" fill="#222"/></svg>