<svg width="30" height="30" viewBox="0 0 30 30" xmlns="http://www.w3.org/2000/svg"><path d="M21.5 14.398c.2.301.398.602.5 1.102h-3.2c0-.102 0-.3.098-.5.102-.2.102-.3.301-.5.102-.2.301-.3.5-.398.2-.102.5-.204.801-.204.398.102.8.204 1 .5zm-9.2-.699c.2-.199.4-.5.4-.898 0-.2 0-.403-.098-.602-.102-.097-.204-.3-.301-.3-.102-.098-.301-.098-.5-.2H9.199V14h2.2c.3 0 .601-.102.902-.3zm-.8 1.7H9.2v2.703h2.3c.2 0 .398 0 .602-.102a.78.78 0 00.5-.2c.097-.1.296-.198.398-.402.102-.199.102-.398.102-.597 0-.5-.102-.903-.403-1.102-.3-.199-.699-.3-1.199-.3zm16.5-8.5v16.203C28 25.8 25.8 28 23.102 28H6.898A4.907 4.907 0 012 23.102V6.898C2 4.2 4.2 2 6.898 2h16.204C25.8 2 28 4.2 28 6.898zm-9.602 4.703h4v-1h-4v1zM15.2 17c0-.602-.097-1.102-.398-1.602C14.5 15 14.1 14.7 13.5 14.5c.398-.2.8-.5 1-.8.2-.302.3-.7.3-1.2s-.1-.8-.198-1.2c-.204-.3-.403-.6-.602-.698-.3-.204-.602-.301-1-.403C12.5 10 12.102 10 11.602 10H7v9.8h4.8c.4 0 .9-.1 1.302-.198a3.791 3.791 0 001.097-.5c.301-.204.602-.5.801-.903.102-.3.2-.699.2-1.199zm3.602-.3h5.097c0-.598 0-1.098-.097-1.598-.102-.5-.301-1-.602-1.301-.3-.403-.699-.7-1.097-.903-.5-.199-1-.398-1.602-.398-.5 0-1 .102-1.5.3-.398.2-.8.5-1.2.802-.3.296-.6.699-.698 1.199-.204.5-.301 1-.301 1.5s.097 1.097.3 1.5c.2.5.399.898.7 1.199.3.3.699.602 1.097.8.5.2 1 .302 1.5.302.801 0 1.5-.204 2.102-.602.602-.398 1-1 1.3-1.8h-1.698c-.102.198-.204.402-.5.6-.301.2-.602.302-1 .302-.5 0-1-.102-1.301-.403a2.441 2.441 0 01-.5-1.5z" fill="#222"/></svg>