<svg width="30" height="30" viewBox="0 0 30 30" xmlns="http://www.w3.org/2000/svg"><path d="M26 8.894a8.345 8.345 0 01-2.357.637 4.074 4.074 0 001.804-2.236 8.297 8.297 0 01-2.607.98A4.126 4.126 0 0019.845 7c-2.265 0-4.103 1.81-4.103 4.04 0 .315.037.625.107.92a11.712 11.712 0 01-8.457-4.224 3.977 3.977 0 00-.555 2.035c0 1.401.723 2.636 1.825 3.36a4.117 4.117 0 01-1.86-.504v.051c0 1.957 1.415 3.589 3.292 3.962a4.127 4.127 0 01-1.08.141c-.266 0-.523-.024-.773-.072a4.097 4.097 0 003.831 2.804 8.295 8.295 0 01-5.095 1.729A8.704 8.704 0 016 21.187 11.745 11.745 0 0012.29 23c7.546 0 11.674-6.156 11.674-11.491 0-.178-.003-.352-.012-.526A8.138 8.138 0 0026 8.893" fill="#222"/></svg>