<svg width="30" height="30" viewBox="0 0 30 30" xmlns="http://www.w3.org/2000/svg"><path d="M8.68 5l1.478 5.344v2.562h1.282v-2.562L12.938 5h-1.292l-.537 2.432a26.95 26.95 0 00-.29 1.515h-.04a22.8 22.8 0 00-.29-1.525L9.97 5H8.68zm5.752 2.018c-.434 0-.784.084-1.051.257-.267.172-.464.448-.59.825-.125.377-.188.876-.188 1.498v.84c0 .614.054 1.107.164 1.478.11.371.296.644.557.82.261.176.62.264 1.078.264.446 0 .8-.087 1.06-.26s.45-.444.565-.818c.116-.374.174-.869.174-1.485v-.84c0-.62-.059-1.118-.178-1.492-.119-.373-.308-.648-.566-.824-.258-.176-.598-.263-1.025-.263zm2.447.113v4.314c0 .534.09.927.271 1.178.182.251.465.377.848.377.552 0 .968-.267 1.244-.8h.027l.114.706H20.4V7.131h-1.298v4.588a.635.635 0 01-.23.264.569.569 0 01-.325.103c-.132 0-.226-.054-.283-.164-.057-.11-.086-.295-.086-.553V7.131h-1.299zm-2.477.781c.182 0 .311.095.383.287.072.191.108.495.108.91v1.8c0 .426-.036.735-.108.923-.072.188-.2.282-.38.283-.183 0-.309-.095-.378-.283-.07-.188-.103-.497-.103-.924V9.11c0-.414.035-.718.107-.91.072-.19.195-.287.371-.287zM6 14v11h18V14H6zm9.049 2h1.057v2.568h.007c.095-.186.231-.335.406-.449a1.02 1.02 0 01.567-.17c.26 0 .463.07.611.207.148.138.256.361.322.668.066.308.098.735.098 1.281v.772h.002c0 .727-.089 1.26-.264 1.602-.175.342-.447.513-.818.513-.207 0-.394-.047-.564-.142a.93.93 0 01-.383-.391h-.024l-.11.461h-.907V16zm-6.563.246h3.252v.885h-1.09v5.789H9.576v-5.79h-1.09v-.884zm11.612 1.705c.376 0 .665.07.867.207.2.138.343.354.426.645.082.292.123.695.123 1.209v.836h-1.836v.248c0 .313.008.547.027.703.02.156.057.27.115.342.058.072.148.107.27.107.164 0 .277-.064.338-.191s.094-.338.1-.635l.947.055a1.6 1.6 0 01.007.175c0 .451-.124.788-.37 1.01-.248.223-.595.334-1.046.334-.54 0-.92-.17-1.138-.51-.218-.339-.326-.863-.326-1.574v-.852c0-.732.113-1.266.338-1.603.225-.337.612-.506 1.158-.506zm-8.688.094h1.1v3.58c0 .217.024.373.072.465.048.093.126.139.238.139a.486.486 0 00.276-.088.538.538 0 00.193-.223v-3.873h1.1v4.875h-.862l-.093-.598h-.026c-.234.452-.584.678-1.05.678-.325 0-.561-.106-.715-.318-.154-.212-.233-.544-.233-.994v-3.643zm8.664.648c-.117 0-.204.036-.26.104-.056.069-.093.182-.11.338a6.506 6.506 0 00-.028.71v.35h.803v-.35c0-.312-.01-.548-.032-.71-.02-.162-.059-.276-.115-.342s-.14-.1-.258-.1zm-3.482.035a.418.418 0 00-.293.127.698.698 0 00-.192.327v2.767a.487.487 0 00.438.256.337.337 0 00.277-.127c.07-.085.12-.228.149-.43.029-.2.043-.48.043-.836v-.627c0-.381-.012-.675-.036-.882-.024-.207-.067-.357-.127-.444a.299.299 0 00-.26-.13z" fill="#222"/></svg>