<svg width="30" height="30" viewBox="0 0 30 30" xmlns="http://www.w3.org/2000/svg"><path d="M17.015 5c-1.7 0-3 1.414-3 3v2.031c-2.118.145-4.024.754-5.563 1.688-.558-.438-1.219-.688-1.875-.688-.726 0-1.433.278-1.937.844-.957 1.195-.871 3.148.468 4.156a4.968 4.968 0 00-.093.969c0 2.055 1.242 3.844 3.062 5.063C9.897 23.28 12.335 24 15.015 24c2.68 0 5.117-.719 6.937-1.938 1.82-1.218 3.063-3.007 3.063-5.062 0-.332-.063-.652-.125-.969 1.363-1.086 1.504-3.027.5-4.156-.504-.566-1.211-.844-1.938-.844-.656 0-1.316.25-1.875.688-1.539-.934-3.445-1.543-5.562-1.688V8c0-.613.3-1 1-1 .32 0 .773.172 1.53.438a9.417 9.417 0 002.72.53A1.997 1.997 0 0023.015 9c1.101 0 2-.898 2-2a2.004 2.004 0 00-3.72-1.031 7.023 7.023 0 01-2.093-.407C18.534 5.329 17.893 5 17.015 5zm6 1c.601 0 1 .398 1 1s-.399 1-1 1c-.602 0-1-.398-1-1s.398-1 1-1zm-8 6c2.32 0 4.382.637 5.812 1.594 1.43.957 2.188 2.16 2.188 3.406s-.758 2.45-2.188 3.406c-1.43.957-3.492 1.594-5.812 1.594-2.32 0-4.383-.637-5.813-1.594-1.43-.957-2.187-2.16-2.187-3.406s.757-2.45 2.187-3.406c1.43-.957 3.492-1.594 5.813-1.594zm-8.407.031c.332 0 .684.07 1 .25-.964.742-1.714 1.656-2.156 2.688-.582-.688-.57-1.778-.062-2.438.296-.336.746-.5 1.218-.5zm16.813 0c.473 0 .922.164 1.219.5.492.555.53 1.645-.063 2.406-.441-1.023-1.2-1.917-2.156-2.656.316-.18.668-.25 1-.25zM12.015 14a1.5 1.5 0 100 3 1.5 1.5 0 000-3zm6 0a1.5 1.5 0 100 3 1.5 1.5 0 000-3zm1.093 4.406c-.898.801-2.394 1.282-4.093 1.282-1.7 0-3.196-.489-4.094-1.188.5 1.3 2.094 2.5 4.094 2.5s3.593-1.195 4.093-2.594z" fill="#222"/></svg>